<?xml version="1.0" encoding="UTF-8" standalone="no"?>
<svg
   xmlns:dc="http://purl.org/dc/elements/1.1/"
   xmlns:cc="http://creativecommons.org/ns#"
   xmlns:rdf="http://www.w3.org/1999/02/22-rdf-syntax-ns#"
   xmlns:svg="http://www.w3.org/2000/svg"
   xmlns="http://www.w3.org/2000/svg"
   xmlns:sodipodi="http://sodipodi.sourceforge.net/DTD/sodipodi-0.dtd"
   xmlns:inkscape="http://www.inkscape.org/namespaces/inkscape"
   width="34.75005mm"
   height="38.098957mm"
   viewBox="0 0 34.75005 38.098957"
   version="1.1"
   id="svg2576"
   inkscape:version="1.0.1 (3bc2e813f5, 2020-09-07, custom)"
   sodipodi:docname="ersem.svg">
  <defs
     id="defs2570" />
  <sodipodi:namedview
     id="base"
     pagecolor="#ffffff"
     bordercolor="#666666"
     borderopacity="1.0"
     inkscape:pageopacity="0.0"
     inkscape:pageshadow="2"
     inkscape:zoom="0.35"
     inkscape:cx="719.9551"
     inkscape:cy="431.99803"
     inkscape:document-units="mm"
     inkscape:current-layer="layer1"
     inkscape:document-rotation="0"
     showgrid="false"
     inkscape:window-width="1920"
     inkscape:window-height="1055"
     inkscape:window-x="0"
     inkscape:window-y="0"
     inkscape:window-maximized="1" />
  <metadata
     id="metadata2573">
    <rdf:RDF>
      <cc:Work
         rdf:about="">
        <dc:format>image/svg+xml</dc:format>
        <dc:type
           rdf:resource="http://purl.org/dc/dcmitype/StillImage" />
        <dc:title></dc:title>
      </cc:Work>
    </rdf:RDF>
  </metadata>
  <g
     inkscape:label="Layer 1"
     inkscape:groupmode="layer"
     id="layer1"
     transform="translate(84.654787,-33.867189)">
    <g
       id="g7311"
       transform="matrix(0.07441188,0,0,0.07441188,-86.329203,33.867263)"
       inkscape:export-xdpi="94.411224"
       inkscape:export-ydpi="94.411224">
      <polygon
         style="fill:#353535"
         points="391.999,277.5 451.998,352.499 481.998,352.499 481.998,322.499 "
         id="polygon7181" />
      <polygon
         style="fill:#4f4f4f"
         points="245,352.499 245,322.499 451.998,262.5 451.998,352.499 "
         id="polygon7183" />
      <polygon
         style="fill:#ffe2a8"
         points="481.998,37.502 481.998,322.499 451.998,322.499 361.999,180.001 451.998,37.502 "
         id="polygon7185" />
      <polygon
         style="fill:#fff0d3"
         points="451.998,292.5 393.498,322.499 245,322.499 245,37.502 451.998,37.502 "
         id="polygon7187" />
      <rect
         x="393.49701"
         y="292.49799"
         style="fill:#fa3353;fill-opacity:1"
         width="58.5"
         height="30"
         id="rect7189" />
      <g
         id="g7197">
        <path
           style="fill:#bd7d99;fill-opacity:1"
           d="m 348.499,178.501 c -4.143,0 -7.5,-3.358 -7.5,-7.5 v -10 c 0,-4.142 3.357,-7.5 7.5,-7.5 4.143,0 7.5,3.358 7.5,7.5 v 10 c 0,4.142 -3.357,7.5 -7.5,7.5 z"
           id="path7191" />
        <path
           style="fill:#bd7d99;fill-opacity:1"
           d="m 378.499,178.501 c -4.143,0 -7.5,-3.358 -7.5,-7.5 v -10 c 0,-4.142 3.357,-7.5 7.5,-7.5 4.143,0 7.5,3.358 7.5,7.5 v 10 c 0,4.142 -3.357,7.5 -7.5,7.5 z"
           id="path7193" />
        <path
           style="fill:#bd7d99;fill-opacity:1"
           d="m 363.499,246 c -36.393,0 -65.999,-29.607 -65.999,-65.999 0,-36.392 29.607,-65.999 65.999,-65.999 36.392,0 65.999,29.607 65.999,65.999 0,36.392 -29.606,65.999 -65.999,65.999 z m 0,-116.999 c -28.121,0 -51,22.878 -51,51 0,28.122 22.879,51 51,51 28.121,0 51,-22.878 51,-51 0,-28.122 -22.879,-51 -51,-51 z"
           id="path7195" />
      </g>
      <path
         style="fill:#ff4128"
         d="m 180.001,172.501 h -30 V 292.5 l 50,-30 v -69.999 c -0.001,-11.046 -8.955,-20 -20,-20 z"
         id="path7199" />
      <path
         style="fill:#ff6337"
         d="m 150.001,172.501 h -20 c -11.046,0 -20,8.954 -20,20 V 292.5 h 60 v -99.999 c 0,-11.046 -8.954,-20 -20,-20 z"
         id="path7201" />
      <polygon
         style="fill:#70e6bf;fill-opacity:1"
         points="170.001,352.499 200,352.499 200,262.5 170.001,262.5 140.001,307.5 "
         id="polygon7203" />
      <path
         style="fill:#b6f2de;fill-opacity:1"
         d="m 110.001,262.5 c -7,7.93 -11.82,17.74 -13.97,28.54 -3.07,15.4 -12.96,61.46 -12.96,61.46 H 170 v -90 z"
         id="path7205" />
      <path
         style="fill:#fdc238;fill-opacity:1"
         d="m 182.001,61.502 h -27 v 80.999 c 24.85,0 45,-20.15 45,-45 -0.001,-14.72 -7.071,-27.8 -18,-35.999 z"
         id="path7207" />
      <path
         style="fill:#fee3a4;fill-opacity:1"
         d="m 168.201,76.141 c 1.15,6.36 1.8,13.63 1.8,21.36 0,24.85 -6.72,45 -15,45 -24.85,0 -45,-20.15 -45,-45 z"
         id="path7209" />
      <path
         style="fill:#60312c"
         d="m 182.001,61.502 c -4.04,5.38 -8.67,10.29 -13.8,14.64 l -13.2,-23.64 c 10.12,0 19.48,3.35 27,9 z"
         id="path7211" />
      <g
         id="g7217">
        <path
           style="fill:#85453d"
           d="m 110.001,97.501 c 0,-24.85 20.15,-45 45,-45 5.7,0 10.67,9.56 13.2,23.64 -15.69,13.32 -36.01,21.36 -58.2,21.36 z"
           id="path7213" />
        <circle
           style="fill:#85453d"
           cx="154.99899"
           cy="30"
           r="22.5"
           id="circle7215" />
      </g>
      <path
         style="fill:#bd7d99;fill-opacity:1"
         d="m 363.499,215.5 c -7.49,0 -14.568,-2.891 -19.931,-8.141 -2.96,-2.898 -3.01,-7.646 -0.112,-10.606 2.896,-2.959 7.646,-3.011 10.606,-0.113 2.542,2.489 5.894,3.859 9.437,3.859 3.543,0 6.895,-1.371 9.437,-3.859 2.963,-2.898 7.711,-2.846 10.606,0.113 2.897,2.96 2.848,7.708 -0.112,10.606 -5.363,5.25 -12.441,8.141 -19.931,8.141 z"
         id="path7219" />
      <circle
         cx="169.99899"
         cy="322.49701"
         r="7.5"
         id="circle7221" />
      <circle
         cx="169.99899"
         cy="292.49799"
         r="7.5"
         id="circle7223" />
      <path
         d="M 481.998,30 H 245 c -4.143,0 -7.5,3.358 -7.5,7.5 v 104.622 c 0,4.142 3.357,7.5 7.5,7.5 4.143,0 7.5,-3.358 7.5,-7.5 V 45 h 221.998 v 269.998 h -15 v -22.5 c 0,-4.142 -3.357,-7.5 -7.5,-7.5 h -58.5 c -4.143,0 -7.5,3.358 -7.5,7.5 v 22.5 H 252.5 V 213.734 c 0,-4.142 -3.357,-7.5 -7.5,-7.5 -4.143,0 -7.5,3.358 -7.5,7.5 v 290.762 c 0,4.142 3.357,7.5 7.5,7.5 4.143,0 7.5,-3.358 7.5,-7.5 v -54.5 h 221.998 v 54.5 c 0,4.142 3.357,7.5 7.5,7.5 4.143,0 7.5,-3.358 7.5,-7.5 V 37.5 c 0,-4.142 -3.357,-7.5 -7.5,-7.5 z m -80.999,269.998 h 43.5 v 15 h -43.5 z m 73.499,29.999 v 15 H 252.5 v -15 z m -221.998,105 v -74.999 h 15 v 2.5 c 0,4.142 3.357,7.5 7.5,7.5 4.143,0 7.5,-3.358 7.5,-7.5 v -2.5 h 161.999 v 2.5 c 0,4.142 3.357,7.5 7.5,7.5 4.143,0 7.5,-3.358 7.5,-7.5 v -2.5 h 15 v 74.999 z"
         id="path7225" />
      <path
         d="m 155.001,149.999 c 28.948,0 52.5,-23.551 52.5,-52.5 0,-20.965 -12.356,-39.091 -30.165,-47.499 4.762,-5.312 7.665,-12.323 7.665,-20.001 0,-16.542 -13.458,-30 -30,-30 -16.542,0 -30,13.458 -30,30 0,7.678 2.903,14.69 7.665,20.001 -17.808,8.408 -30.165,26.534 -30.165,47.499 0,28.949 23.552,52.5 52.5,52.5 z m 37.499,-52.5 c 0,20.678 -16.822,37.5 -37.5,37.5 -18.229,0 -33.454,-13.076 -36.806,-30.34 25.031,-2.055 47.915,-13.495 64.606,-32.299 6.025,6.656 9.7,15.476 9.7,25.139 z M 140.001,30 c 0,-8.271 6.729,-15 15,-15 8.271,0 15,6.729 15,15 0,8.271 -6.729,15 -15,15 -8.271,0 -15,-6.729 -15,-15 z m 15,30 c 5.583,0 10.881,1.236 15.647,3.433 C 156.93,78.368 138.504,87.58 118.35,89.579 121.996,72.693 137.041,60 155.001,60 Z"
         id="path7227" />
      <path
         style="fill:#bd7d99;fill-opacity:1"
         d="m 80.001,170.001 c -4.143,0 -7.5,-3.358 -7.5,-7.5 v -35 c 0,-4.142 3.357,-7.5 7.5,-7.5 4.143,0 7.5,3.358 7.5,7.5 v 35 c 0,4.142 -3.357,7.5 -7.5,7.5 z"
         id="path7229" />
      <path
         d="m 200,359.999 c 4.143,0 7.5,-3.358 7.5,-7.5 V 199.714 c 50.271,-3.842 89.999,-45.976 89.999,-97.213 0,-4.142 -3.357,-7.5 -7.5,-7.5 -4.143,0 -7.5,3.358 -7.5,7.5 0,43.343 -33.605,78.96 -76.124,82.228 C 203.013,173.339 192.465,165 180,165 h -50 c -12.563,0 -23.178,8.472 -26.452,20 H 45.002 c -4.136,0 -7.5,-3.364 -7.5,-7.5 0,-4.136 3.364,-7.5 7.5,-7.5 h 35 c 4.143,0 7.5,-3.358 7.5,-7.5 0,-4.142 -3.357,-7.5 -7.5,-7.5 h -35 c -12.406,0 -22.5,10.093 -22.5,22.5 0,12.407 10.094,22.5 22.5,22.5 h 57.5 v 59.763 c -6.861,8.511 -11.62,18.756 -13.823,29.809 -3.024,15.17 -12.839,60.894 -12.938,61.354 -0.476,2.215 0.075,4.526 1.5,6.288 1.424,1.762 3.567,2.786 5.833,2.786 h 2.678 L 58.553,488.742 32.63,497.383 c -3.929,1.31 -6.053,5.557 -4.743,9.487 1.048,3.143 3.974,5.13 7.114,5.13 0.786,0 1.586,-0.125 2.373,-0.387 l 30,-10 c 2.525,-0.842 4.416,-2.96 4.966,-5.565 l 28.743,-136.049 h 76.418 v 134.499 c 0,3.228 2.065,6.094 5.128,7.115 l 30,10 c 0.787,0.262 1.587,0.387 2.373,0.387 3.141,0 6.066,-1.988 7.114,-5.13 1.31,-3.93 -0.814,-8.177 -4.743,-9.487 l -24.872,-8.291 V 359.999 Z M 130.001,180.001 h 50 c 6.893,0 12.5,5.607 12.5,12.5 V 255 h -74.999 v -62.5 c -10e-4,-6.892 5.606,-12.499 12.499,-12.499 z m -26.612,112.503 c 1.659,-8.325 5.149,-16.037 10.147,-22.504 H 192.5 v 74.999 H 95.09 c -0.037,0 -0.074,0 -0.112,0 h -2.629 c 3.047,-14.258 8.83,-41.414 11.04,-52.495 z"
         id="path7231" />
      <g
         id="g7233" />
      <g
         id="g7235" />
      <g
         id="g7237" />
      <g
         id="g7239" />
      <g
         id="g7241" />
      <g
         id="g7243" />
      <g
         id="g7245" />
      <g
         id="g7247" />
      <g
         id="g7249" />
      <g
         id="g7251" />
      <g
         id="g7253" />
      <g
         id="g7255" />
      <g
         id="g7257" />
      <g
         id="g7259" />
      <g
         id="g7261" />
    </g>
  </g>
</svg>
