<?xml version="1.0" encoding="UTF-8" standalone="no"?>
<svg
   xmlns:dc="http://purl.org/dc/elements/1.1/"
   xmlns:cc="http://creativecommons.org/ns#"
   xmlns:rdf="http://www.w3.org/1999/02/22-rdf-syntax-ns#"
   xmlns:svg="http://www.w3.org/2000/svg"
   xmlns="http://www.w3.org/2000/svg"
   xmlns:sodipodi="http://sodipodi.sourceforge.net/DTD/sodipodi-0.dtd"
   xmlns:inkscape="http://www.inkscape.org/namespaces/inkscape"
   width="39.89782mm"
   height="39.8979mm"
   viewBox="0 0 39.89782 39.8979"
   version="1.1"
   id="svg3425"
   inkscape:version="1.0.1 (3bc2e813f5, 2020-09-07, custom)"
   sodipodi:docname="khammen.svg">
  <defs
     id="defs3419" />
  <sodipodi:namedview
     id="base"
     pagecolor="#ffffff"
     bordercolor="#666666"
     borderopacity="1.0"
     inkscape:pageopacity="0.0"
     inkscape:pageshadow="2"
     inkscape:zoom="0.35"
     inkscape:cx="695.39746"
     inkscape:cy="163.96905"
     inkscape:document-units="mm"
     inkscape:current-layer="layer1"
     inkscape:document-rotation="0"
     showgrid="false"
     inkscape:window-width="1920"
     inkscape:window-height="1055"
     inkscape:window-x="0"
     inkscape:window-y="0"
     inkscape:window-maximized="1" />
  <metadata
     id="metadata3422">
    <rdf:RDF>
      <cc:Work
         rdf:about="">
        <dc:format>image/svg+xml</dc:format>
        <dc:type
           rdf:resource="http://purl.org/dc/dcmitype/StillImage" />
        <dc:title></dc:title>
      </cc:Work>
    </rdf:RDF>
  </metadata>
  <g
     inkscape:label="Layer 1"
     inkscape:groupmode="layer"
     id="layer1"
     transform="translate(78.157244,-104.78319)">
    <g
       id="g7032"
       transform="matrix(0.07792528,0,0,0.07792528,-78.157322,104.78319)"
       inkscape:export-xdpi="94.411224"
       inkscape:export-ydpi="94.411224">
      <circle
         style="fill:#ffcb63"
         cx="444.50101"
         cy="30"
         r="22.5"
         id="circle6899" />
      <path
         style="fill:#ffb4a9"
         d="m 444.502,52.502 v 90 c 24.853,0 45,-20.147 45,-45 0,-24.853 -20.147,-45 -45,-45 z"
         id="path6901" />
      <path
         style="fill:#ffd9d4"
         d="m 459.502,97.502 c 0,-24.853 -6.716,-45 -15,-45 -24.853,0 -45,20.147 -45,45 0,24.853 20.147,45 45,45 8.284,0 15,-20.147 15,-45 z"
         id="path6903" />
      <path
         style="fill:#f9b513;fill-opacity:1"
         d="m 489.502,262.502 v -70 c 0,-11.046 -8.954,-20 -20,-20 h -30 v 140 l 35,40 h 30 v -50.335 c 0,-15.211 -5.671,-29.09 -15,-39.665 z"
         id="path6905" />
      <path
         style="fill:#fdc238;fill-opacity:1"
         d="m 459.502,262.502 v -70 c 0,-11.046 -8.954,-20 -20,-20 h -20 c -11.046,0 -20,8.954 -20,20 v 160 h 75 v -50.335 c 0,-15.211 -5.671,-29.09 -15,-39.665 z"
         id="path6907" />
      <path
         style="fill:#4f4f4f"
         d="m 292.502,262.502 v 75 c 24.853,0 45,-20.147 45,-45 z"
         id="path6909" />
      <path
         style="fill:#696969"
         d="m 307.502,292.502 -15,-30 -45,30 c 0,24.853 20.147,45 45,45 8.284,0 15,-20.147 15,-45 z"
         id="path6911" />
      <path
         style="fill:#dbf4ff"
         d="m 317.502,172.502 h -30 l 20,120 h 30 v -100 c 0,-11.046 -8.954,-20 -20,-20 z"
         id="path6913" />
      <path
         style="fill:#ffffff"
         d="m 287.502,172.502 h -20 c -11.046,0 -20,8.954 -20,20 v 100 h 60 v -100 c 0,-11.046 -8.954,-20 -20,-20 z"
         id="path6915" />
      <path
         style="fill:#85453d"
         d="m 292.502,52.502 v 90 c 24.853,0 45,-20.147 45,-45 0,-24.853 -20.147,-45 -45,-45 z"
         id="path6917" />
      <path
         style="fill:#a45e43"
         d="m 307.502,97.502 c 0,-24.853 -6.716,-45 -15,-45 -24.853,0 -45,20.147 -45,45 0,24.853 20.147,45 45,45 8.284,0 15,-20.147 15,-45 z"
         id="path6919" />
      <path
         style="fill:#fff0d3"
         d="m 142.501,52.502 c 0,0 0,21.716 0,30 l 15,15 15,-15 c 0,-8.284 0,-30 0,-30 z"
         id="path6921" />
      <path
         style="fill:#ffcb63"
         d="m 172.501,82.502 c 0,0 0,11.716 0,20 0,8.284 -6.716,15 -15,15 -8.284,0 -15,-6.716 -15,-15 0,-8.284 0,-20 0,-20 z"
         id="path6923" />
      <path
         style="fill:#40211d"
         d="m 67.502,52.502 v 46.355 h 34.695 v -30 C 93.947,58.877 81.472,52.502 67.502,52.502 Z"
         id="path6925" />
      <path
         style="fill:#60312c"
         d="m 32.807,98.857 v -30 c 8.25,-9.98 20.725,-16.355 34.695,-16.355 6.09,0 11.32,10.88 13.67,26.5 -0.129,-0.061 0,19.855 0,19.855 0,0 -48.365,0 -48.365,0 z"
         id="path6927" />
      <path
         style="fill:#85453d"
         d="m 102.197,68.857 c -1.07,4.55 -4.225,8.535 -8.865,10.465 -4.64,1.92 -9.68,1.33 -13.65,-1.13 l -12.18,64.31 c 24.85,0 45,-20.15 45,-45 0,-10.88 -3.875,-20.855 -10.305,-28.645 z"
         id="path6929" />
      <path
         style="fill:#a45e43"
         d="m 81.172,79.002 c -0.51,-0.24 -1.01,-0.51 -1.49,-0.81 -2.72,3.79 -7.16,6.26 -12.18,6.26 -4.08,0 -7.77,-1.63 -10.48,-4.28 -0.62,-0.61 -1.19,-1.27 -1.7,-1.98 -3.97,2.46 -9.01,3.05 -13.65,1.13 -2.03,-0.84 -3.77,-2.08 -5.19,-3.59 -1.81,-1.93 -3.075,-4.315 -3.675,-6.875 -6.43,7.79 -10.305,17.765 -10.305,28.645 0,24.85 20.15,45 45,45 8.28,0 15,-20.15 15,-45 0,-6.6 -0.48,-12.86 -1.33,-18.5 z"
         id="path6931" />
      <path
         style="fill:#85453d"
         d="m 92.502,172.502 h -30 V 224.2 l 50,-10 v -21.698 c 0,-11.046 -8.954,-20 -20,-20 z"
         id="path6933" />
      <path
         style="fill:#a45e43"
         d="m 62.502,172.502 h -20 c -11.046,0 -20,8.954 -20,20 V 214.2 l 60,20 v -41.698 c 0,-11.046 -8.954,-20 -20,-20 z"
         id="path6935" />
      <path
         style="fill:#999999"
         d="m 90.002,202.502 c -2.602,0 -5.115,0.374 -7.5,1.049 l -20,88.951 h 50 V 214.2 c -4.976,-7.072 -13.196,-11.698 -22.5,-11.698 z"
         id="path6937" />
      <path
         style="fill:#cccccc"
         d="m 67.502,214.2 c -4.976,-7.072 -13.195,-11.698 -22.5,-11.698 -9.304,0 -17.524,4.625 -22.5,11.698 v 78.302 h 60 v -88.951 c -6.144,1.741 -11.416,5.554 -15,10.649 z"
         id="path6939" />
      <path
         style="fill:#ff4128"
         d="m 112.502,262.502 h -30 l 15,90 h 30 v -50.335 c 0,-15.211 -5.671,-29.09 -15,-39.665 z"
         id="path6941" />
      <path
         style="fill:#ff6337"
         d="m 82.502,262.502 h -60 c -9.329,10.575 -15,24.454 -15,39.665 v 50.335 h 90 v -50.335 c 0,-15.211 -5.671,-29.09 -15,-39.665 z"
         id="path6943" />
      <path
         d="M 497.002,259.759 V 192.5 c 0,-15.163 -12.337,-27.5 -27.5,-27.5 h -32.5 v -15.544 c 2.451,0.352 4.953,0.544 7.5,0.544 28.948,0 52.5,-23.552 52.5,-52.5 0,-20.964 -12.356,-39.09 -30.165,-47.499 4.762,-5.312 7.665,-12.323 7.665,-20.001 0,-16.542 -13.458,-30 -30,-30 -16.542,0 -30,13.458 -30,30 0,7.678 2.903,14.69 7.665,20.001 -17.808,8.408 -30.165,26.534 -30.165,47.499 0,20.9 12.279,38.982 30,47.424 V 165 h -2.5 c -15.163,0 -27.5,12.337 -27.5,27.5 v 31.21 c -8.729,-3.096 -15,-11.433 -15,-21.21 v -60 c 0,-4.143 -3.357,-7.5 -7.5,-7.5 -4.143,0 -7.5,3.357 -7.5,7.5 v 60 c 0,18.11 12.904,33.261 30,36.745 V 352.5 c 0,4.143 3.357,7.5 7.5,7.5 h 7.5 v 129.095 l -24.872,8.29 c -3.929,1.31 -6.053,5.558 -4.743,9.487 1.048,3.143 3.974,5.13 7.114,5.13 0.786,0 1.586,-0.125 2.373,-0.387 l 30,-10 c 3.062,-1.021 5.128,-3.887 5.128,-7.115 V 360 h 45 v 129.095 l -24.872,8.29 c -3.929,1.31 -6.053,5.558 -4.743,9.487 1.048,3.143 3.974,5.13 7.114,5.13 0.786,0 1.586,-0.125 2.373,-0.387 l 30,-10 c 3.062,-1.021 5.128,-3.887 5.128,-7.115 V 360 h 22.5 c 4.143,0 7.5,-3.357 7.5,-7.5 v -50.335 c -10e-4,-15.472 -5.307,-30.417 -15,-42.406 z M 429.502,30 c 0,-8.271 6.729,-15 15,-15 8.271,0 15,6.729 15,15 0,8.271 -6.729,15 -15,15 -8.271,0 -15,-6.729 -15,-15 z m -22.5,67.5 c 0,-20.678 16.822,-37.5 37.5,-37.5 20.678,0 37.5,16.822 37.5,37.5 0,20.678 -16.822,37.5 -37.5,37.5 -20.678,0 -37.5,-16.822 -37.5,-37.5 z m 90,247.5 h -90 V 192.5 c 0,-6.893 5.607,-12.5 12.5,-12.5 h 2.5 v 22.5 c 0,20.678 16.822,37.5 37.5,37.5 4.143,0 7.5,-3.357 7.5,-7.5 0,-4.143 -3.357,-7.5 -7.5,-7.5 -12.406,0 -22.5,-10.094 -22.5,-22.5 V 180 h 32.5 c 6.893,0 12.5,5.607 12.5,12.5 v 70 c 0,1.827 0.667,3.592 1.876,4.962 8.463,9.594 13.124,21.918 13.124,34.703 z"
         id="path6945" />
      <path
         d="m 336.384,63.505 -2.664,1.538 c -2.567,-3.253 -5.508,-6.194 -8.76,-8.76 l 1.537,-2.663 c 2.071,-3.587 0.842,-8.174 -2.745,-10.245 -3.59,-2.07 -8.176,-0.843 -10.245,2.745 l -1.526,2.643 c -3.797,-1.523 -7.808,-2.618 -11.979,-3.218 V 42.5 c 0,-4.143 -3.357,-7.5 -7.5,-7.5 -4.143,0 -7.5,3.357 -7.5,7.5 v 3.044 c -4.171,0.6 -8.182,1.695 -11.979,3.218 l -1.526,-2.643 c -2.071,-3.588 -6.66,-4.814 -10.245,-2.745 -3.587,2.071 -4.816,6.658 -2.745,10.245 l 1.537,2.663 c -3.253,2.567 -6.194,5.508 -8.76,8.76 l -2.663,-1.538 c -3.587,-2.07 -8.174,-0.843 -10.245,2.745 -2.071,3.587 -0.842,8.174 2.745,10.245 l 2.643,1.526 c -2.418,6.028 -3.762,12.597 -3.762,19.479 0,20.9 12.279,38.982 30,47.424 V 165 h -2.5 c -15.164,0 -27.5,12.337 -27.5,27.5 v 31.21 c -8.729,-3.096 -15,-11.433 -15,-21.21 v -60 c 0,-4.143 -3.358,-7.5 -7.5,-7.5 -4.142,0 -7.5,3.357 -7.5,7.5 v 60 c 0,18.11 12.904,33.261 30,36.745 V 292.5 c 0,14.269 5.73,27.219 15,36.692 v 159.903 l -24.872,8.29 c -3.93,1.31 -6.053,5.558 -4.744,9.487 1.048,3.143 3.974,5.13 7.114,5.13 0.786,0 1.586,-0.125 2.373,-0.387 l 30,-10 c 3.062,-1.021 5.128,-3.887 5.128,-7.115 V 339.924 c 6.824,3.251 14.452,5.076 22.5,5.076 8.048,0 15.676,-1.825 22.5,-5.076 v 149.171 l -24.872,8.29 c -3.93,1.31 -6.053,5.558 -4.743,9.487 1.048,3.143 3.974,5.13 7.114,5.13 0.786,0 1.586,-0.125 2.373,-0.387 l 30,-10 c 3.062,-1.021 5.128,-3.887 5.128,-7.115 V 329.192 c 9.27,-9.472 15,-22.423 15,-36.692 v -100 c 0,-15.163 -12.337,-27.5 -27.5,-27.5 H 285 v -15.544 c 2.451,0.352 4.953,0.544 7.5,0.544 28.948,0 52.5,-23.552 52.5,-52.5 0,-6.881 -1.344,-13.451 -3.762,-19.479 l 2.644,-1.526 c 3.587,-2.07 4.816,-6.657 2.745,-10.245 -2.068,-3.588 -6.654,-4.814 -10.243,-2.745 z M 255.757,300 h 73.491 c -3.484,17.096 -18.635,30 -36.745,30 -18.11,0 -33.262,-12.904 -36.746,-30 z m 61.745,-120 c 6.893,0 12.5,5.607 12.5,12.5 V 285 h -75 v -92.5 c 0,-6.893 5.607,-12.5 12.5,-12.5 h 2.5 v 22.5 c 0,20.678 16.822,37.5 37.5,37.5 4.143,0 7.5,-3.357 7.5,-7.5 0,-4.143 -3.357,-7.5 -7.5,-7.5 -12.406,0 -22.5,-10.094 -22.5,-22.5 V 180 Z m -25,-45 c -20.678,0 -37.5,-16.822 -37.5,-37.5 0,-20.678 16.822,-37.5 37.5,-37.5 20.678,0 37.5,16.822 37.5,37.5 0,20.678 -16.822,37.5 -37.5,37.5 z"
         id="path6947" />
      <path
         d="m 172.501,155 h -7.5 v -31.29 c 8.729,-3.096 15,-11.433 15,-21.21 v -50 c 0,-4.143 -3.358,-7.5 -7.5,-7.5 h -30 c -4.142,0 -7.5,3.357 -7.5,7.5 v 50 c 0,9.777 6.271,18.114 15,21.21 V 155 h -7.5 c -4.142,0 -7.5,3.357 -7.5,7.5 0,4.143 3.358,7.5 7.5,7.5 h 30 c 4.136,0 7.5,3.364 7.5,7.5 0,4.136 -3.364,7.5 -7.5,7.5 h -53.548 c -3.274,-11.528 -13.889,-20 -26.452,-20 h -50 c -15.164,0 -27.5,12.337 -27.5,27.5 v 67.259 c -9.693,11.989 -15,26.935 -15,42.406 V 352.5 c 0,4.143 3.358,7.5 7.5,7.5 h 23.5 v 134.5 c 0,3.229 2.066,6.095 5.128,7.115 l 30,10 c 0.787,0.262 1.586,0.387 2.373,0.387 3.14,0 6.066,-1.987 7.114,-5.13 1.31,-3.93 -0.814,-8.178 -4.744,-9.487 L 46,489.095 V 360 h 44 v 134.5 c 0,3.229 2.066,6.095 5.128,7.115 l 30,10 c 0.787,0.262 1.586,0.387 2.373,0.387 3.14,0 6.066,-1.987 7.114,-5.13 1.31,-3.93 -0.814,-8.178 -4.744,-9.487 l -24.872,-8.29 V 360 h 22.5 c 4.142,0 7.5,-3.357 7.5,-7.5 v -50.335 c 0,-15.472 -5.307,-30.417 -15,-42.406 V 200 h 52.5 c 12.407,0 22.5,-10.094 22.5,-22.5 0,-12.406 -10.091,-22.5 -22.498,-22.5 z m -22.5,-95 h 15 v 42.5 c 0,4.136 -3.364,7.5 -7.5,7.5 -4.136,0 -7.5,-3.364 -7.5,-7.5 z M 30.002,255 v -38.208 c 3.779,-4.285 9.239,-6.792 15,-6.792 6.497,0 12.615,3.183 16.366,8.514 1.405,1.997 3.693,3.185 6.134,3.185 2.441,0 4.729,-1.188 6.134,-3.185 3.751,-5.331 9.869,-8.514 16.366,-8.514 5.761,0 11.221,2.507 15,6.791 V 255 Z m 12.5,-75 h 50 c 6.891,0 12.497,5.605 12.5,12.495 0,0.015 0,5.909 0,5.909 -4.63,-2.201 -9.74,-3.405 -15,-3.405 -8.309,0 -16.261,2.97 -22.5,8.204 C 61.263,197.97 53.311,195 45.002,195 c -5.26,0 -10.37,1.203 -15,3.405 V 192.5 c 0,-6.893 5.607,-12.5 12.5,-12.5 z m 77.5,165 h -105 v -42.835 c 0,-11.687 3.905,-22.982 11.039,-32.165 h 82.922 c 7.134,9.183 11.039,20.478 11.039,32.165 z"
         id="path6949" />
      <path
         d="m 67.502,150 c 28.949,0 52.5,-23.552 52.5,-52.5 0,-28.948 -23.551,-52.5 -52.5,-52.5 -28.949,0 -52.5,23.552 -52.5,52.5 0,28.948 23.551,52.5 52.5,52.5 z M 93.301,70.323 c -0.755,0.891 -1.718,1.601 -2.836,2.066 -2.249,0.932 -4.74,0.722 -6.832,-0.574 -3.353,-2.079 -7.743,-1.203 -10.044,2.002 -1.429,1.991 -3.647,3.133 -6.087,3.133 -2.44,0 -4.658,-1.142 -6.087,-3.133 -2.301,-3.205 -6.689,-4.08 -10.044,-2.002 -2.091,1.296 -4.582,1.508 -6.818,0.58 -1.126,-0.469 -2.093,-1.18 -2.85,-2.073 C 48.431,63.933 57.513,60 67.502,60 c 9.989,0 19.071,3.934 25.799,10.323 z M 33.032,82.745 c 1.72,1.437 3.66,2.627 5.773,3.506 4.716,1.95 9.924,2.207 14.747,0.838 3.931,3.106 8.843,4.861 13.951,4.861 5.108,0 10.021,-1.755 13.951,-4.861 4.825,1.368 10.036,1.111 14.76,-0.844 2.107,-0.877 4.043,-2.064 5.76,-3.499 1.947,4.531 3.029,9.518 3.029,14.754 0,20.678 -16.822,37.5 -37.5,37.5 -20.678,0 -37.5,-16.822 -37.5,-37.5 -0.001,-5.237 1.082,-10.224 3.029,-14.755 z"
         id="path6951" />
      <g
         id="g6953" />
      <g
         id="g6955" />
      <g
         id="g6957" />
      <g
         id="g6959" />
      <g
         id="g6961" />
      <g
         id="g6963" />
      <g
         id="g6965" />
      <g
         id="g6967" />
      <g
         id="g6969" />
      <g
         id="g6971" />
      <g
         id="g6973" />
      <g
         id="g6975" />
      <g
         id="g6977" />
      <g
         id="g6979" />
      <g
         id="g6981" />
    </g>
  </g>
</svg>
