<?xml version="1.0" encoding="UTF-8" standalone="no"?>
<!-- Created with Inkscape (http://www.inkscape.org/) -->

<svg
   width="40.111mm"
   height="36.585907mm"
   viewBox="0 0 40.111 36.585907"
   version="1.1"
   id="svg9764"
   inkscape:version="1.1.1 (3bf5ae0d25, 2021-09-20, custom)"
   sodipodi:docname="massel1.svg"
   xmlns:inkscape="http://www.inkscape.org/namespaces/inkscape"
   xmlns:sodipodi="http://sodipodi.sourceforge.net/DTD/sodipodi-0.dtd"
   xmlns="http://www.w3.org/2000/svg"
   xmlns:svg="http://www.w3.org/2000/svg">
  <sodipodi:namedview
     id="namedview9766"
     pagecolor="#ffffff"
     bordercolor="#666666"
     borderopacity="1.0"
     inkscape:pageshadow="2"
     inkscape:pageopacity="0.0"
     inkscape:pagecheckerboard="0"
     inkscape:document-units="mm"
     showgrid="false"
     inkscape:zoom="0.64052329"
     inkscape:cx="-258.38249"
     inkscape:cy="-103.04075"
     inkscape:window-width="1920"
     inkscape:window-height="1055"
     inkscape:window-x="0"
     inkscape:window-y="0"
     inkscape:window-maximized="1"
     inkscape:current-layer="layer1" />
  <defs
     id="defs9761" />
  <g
     inkscape:label="Layer 1"
     inkscape:groupmode="layer"
     id="layer1"
     transform="translate(-173.67607,-175.43862)">
    <g
       id="g6897"
       transform="matrix(0.0783418,0,0,0.07834174,173.67607,173.67609)"
       inkscape:export-xdpi="94.411224"
       inkscape:export-ydpi="94.411224">
      <path
         style="fill:#b3b3b3"
         d="m 37.5,240.001 30,75 c 21.217,0 30,0 30,0 v -45 z"
         id="path6737" />
      <path
         style="fill:#cccccc"
         d="m 7.5,270.001 c 0,24.853 20.147,45 45,45 h 15 v -75 z"
         id="path6739" />
      <path
         style="fill:#3fdda9;fill-opacity:1"
         d="m 77.5,150.001 h -30 l 20,120 h 30 v -100 c 0,-11.045 -8.954,-20 -20,-20 z"
         id="path6741" />
      <path
         style="fill:#70e6bf;fill-opacity:1"
         d="m 47.5,150.001 h -20 c -11.046,0 -20,8.954 -20,20 v 100 h 60 v -100 c 0,-11.045 -8.954,-20 -20,-20 z"
         id="path6743" />
      <path
         style="fill:#a45e43"
         d="M 86.755,45.836 C 86.765,45.826 52.5,45.831 52.5,45.831 v 74.17 c 24.85,0 45,-20.15 45,-45 0,-11.12 -4.045,-21.315 -10.745,-29.165 z"
         id="path6745" />
      <path
         style="fill:#c27749"
         d="M 66.39,58.011 18.245,45.836 C 11.545,53.686 7.5,63.881 7.5,75.001 c 0,24.85 20.15,45 45,45 8.28,0 15,-20.15 15,-45 0,-6.01 -0.39,-11.75 -1.11,-16.99 z"
         id="path6747" />
      <path
         style="fill:#40211d"
         d="m 52.5,30.001 13.89,28.01 C 73.84,55.781 80.865,51.716 86.755,45.836 78.505,36.146 66.22,30.001 52.5,30.001 Z"
         id="path6749" />
      <path
         style="fill:#60312c"
         d="m 52.5,30.001 c -13.72,0 -26.005,6.145 -34.255,15.835 13.04,13.04 31.645,17.105 48.145,12.175 -2.23,-16.43 -7.61,-28.01 -13.89,-28.01 z"
         id="path6751" />
      <g
         id="g6757">
        <path
           id="polygon6753"
           style="fill:#808080"
           d="m 218.358,482.001 h 30 v -60 l -30,15 z" />
        <path
           id="polygon6755"
           style="fill:#808080"
           d="m 474.5,422.001 v 60 h 30 v -45 z" />
      </g>
      <path
         id="polygon6759"
         style="fill:#cccccc"
         d="m 474.5,437.001 h 30 v -30 l -60,-15 z" />
      <path
         id="polygon6761"
         style="fill:#ebebeb"
         d="m 218.358,407.001 v 30 H 474.5 v -77 z" />
      <path
         style="fill:#a8e5ff"
         d="M 218.358,407.001 H 474.5 Z"
         id="path6763" />
      <path
         style="fill:#fdc238;fill-opacity:1"
         d="m 474.5,245.001 h -30 v 132 h 33.25 l 26.75,-33.25 v -68.75 c 0,-16.5 -13.5,-30 -30,-30 z"
         id="path6765" />
      <path
         style="fill:#fede93;fill-opacity:1"
         d="M 444.5,245.001 H 248.358 c -16.5,0 -30,13.5 -30,30 v 68.75 l 26.75,46.25 H 474.5 v -115 c 0,-16.5 -13.5,-30 -30,-30 z"
         id="path6767" />
      <path
         style="fill:#f12848;fill-opacity:1"
         d="m 406,300.001 -60,-30 45,120 h 30 v -50.335 c 0,-15.211 -5.671,-29.089 -15,-39.665 z"
         id="path6769" />
      <path
         style="fill:#fa3353;fill-opacity:1"
         d="m 376,300.001 -30,-30 -30,30 c -9.329,10.575 -15,24.454 -15,39.665 v 50.335 h 90 v -50.335 c 0,-15.211 -5.671,-29.089 -15,-39.665 z"
         id="path6771" />
      <path
         style="fill:#f9b513;fill-opacity:1"
         d="m 451,390.001 c 0,-16.5 -13.5,-30 -30,-30 h -30 l 30,47 h 30 l 30,-23.5 z"
         id="path6773" />
      <path
         style="fill:#fdc238;fill-opacity:1"
         d="m 391,360.001 h -89.142 c -16.5,0 -30,13.5 -30,30 l -30,-6.5 30,23.5 H 421 v -17 c 0,-16.5 -13.5,-30 -30,-30 z"
         id="path6775" />
      <path
         style="fill:#f9b513;fill-opacity:1"
         d="m 245.108,317.001 c -14.774,0 -26.75,11.977 -26.75,26.75 v 63.25 h 53.5 v -63.25 c 0,-14.774 -11.977,-26.75 -26.75,-26.75 z"
         id="path6777" />
      <path
         style="fill:#eca90b;fill-opacity:1"
         d="m 477.75,317.001 c -14.774,0 -26.75,11.977 -26.75,26.75 v 63.25 h 53.5 v -63.25 c 0,-14.774 -11.976,-26.75 -26.75,-26.75 z"
         id="path6779" />
      <path
         style="fill:#353535"
         d="m 386,195.001 h -30 l 20,105 h 30 v -85 c 0,-11.045 -8.954,-20 -20,-20 z"
         id="path6781" />
      <path
         style="fill:#4f4f4f"
         d="m 356,195.001 h -20 c -11.046,0 -20,8.954 -20,20 v 85 h 60 v -85 c 0,-11.045 -8.954,-20 -20,-20 z"
         id="path6783" />
      <path
         style="fill:#ff7736;fill-opacity:1"
         d="m 361,75.001 c 24.853,0 45,-20.147 45,-45 -24.853,0 -45,20.147 -45,45 z"
         id="path6785" />
      <path
         style="fill:#999999"
         d="m 316,30.001 c 0,24.853 20.147,45 45,45 0,-24.853 -20.147,-45 -45,-45 z"
         id="path6787" />
      <path
         style="fill:#3fdda9;fill-opacity:1"
         d="m 328.408,88.972 -36.196,38.015 c -3.847,4.037 -6.213,9.498 -6.213,15.515 0,12.426 10.074,22.5 22.5,22.5 h 52.5 v -76.03 z"
         id="path6789" />
      <path
         style="fill:#29c995;fill-opacity:1"
         d="M 429.785,126.986 393.59,88.972 h -32.591 v 76.03 h 52.5 c 12.426,0 22.5,-10.074 22.5,-22.5 0,-6.018 -2.367,-11.479 -6.214,-15.516 z"
         id="path6791" />
      <path
         style="fill:#ffd9d4"
         d="m 395.254,90.847 c 0.01,-0.01 -34.255,-0.005 -34.255,-0.005 v 74.223 c 24.85,0 45,-20.165 45,-45.032 0,-11.127 -4.045,-21.33 -10.745,-29.186 z"
         id="path6793" />
      <path
         style="fill:#fff0d3"
         d="M 374.889,103.031 326.744,90.847 c -6.7,7.856 -10.745,18.058 -10.745,29.186 0,24.868 20.15,45.032 45,45.032 8.28,0 15,-20.165 15,-45.032 0,-6.014 -0.39,-11.758 -1.11,-17.002 z"
         id="path6795" />
      <path
         style="fill:#29c995;fill-opacity:1"
         d="m 360.999,75.001 13.89,28.03 c 7.45,-2.232 14.475,-6.299 20.365,-12.184 -8.25,-9.696 -20.535,-15.846 -34.255,-15.846 z"
         id="path6797" />
      <path
         style="fill:#3fdda9;fill-opacity:1"
         d="m 360.999,75.001 c -13.72,0 -26.005,6.149 -34.255,15.846 13.04,13.049 31.645,17.117 48.145,12.184 -2.23,-16.441 -7.61,-28.03 -13.89,-28.03 z"
         id="path6799" />
      <path
         d="m 52.5,127.499 c 28.948,0 52.5,-23.551 52.5,-52.5 0,-28.949 -23.552,-52.5 -52.5,-52.5 -28.948,0 -52.5,23.551 -52.5,52.5 0,28.949 23.552,52.5 52.5,52.5 z m 0,-90 c 8.674,0 16.662,2.968 23.022,7.931 -13.839,9.42 -32.206,9.42 -46.044,0 6.36,-4.963 14.348,-7.931 23.022,-7.931 z M 19.68,56.883 c 9.751,7.072 21.284,10.615 32.82,10.615 11.536,0 23.069,-3.542 32.82,-10.615 2.978,5.374 4.68,11.549 4.68,18.116 0,20.678 -16.822,37.5 -37.5,37.5 -20.678,0 -37.5,-16.822 -37.5,-37.5 0,-6.567 1.702,-12.742 4.68,-18.116 z"
         id="path6801" />
      <path
         d="m 195,81.999 c 0,-4.142 -3.357,-7.5 -7.5,-7.5 -4.143,0 -7.5,3.358 -7.5,7.5 0,43.173 -33.341,78.682 -75.623,82.191 C 101.703,151.809 90.67,142.5 77.5,142.5 h -50 C 12.337,142.5 0,154.836 0,170 v 100 c 0,26.402 19.593,48.304 45,51.956 V 472 c 0,3.228 2.065,6.094 5.128,7.115 l 30,10 c 0.787,0.262 1.587,0.387 2.373,0.387 3.141,0 6.066,-1.988 7.114,-5.13 1.31,-3.93 -0.814,-8.177 -4.743,-9.487 L 60,466.593 V 322.499 h 92.023 c 3.577,0 6.663,2.549 7.35,6.063 0.385,1.966 -0.021,3.964 -1.14,5.625 -1.118,1.662 -2.817,2.789 -4.746,3.166 l -68.321,12.975 c -3.186,0.605 -5.621,3.188 -6.038,6.404 l -4.065,31.36 c -0.533,4.108 2.365,7.87 6.474,8.402 0.327,0.042 0.651,0.063 0.974,0.063 3.713,0 6.938,-2.756 7.428,-6.537 l 3.367,-25.971 63.02,-11.968 c 5.898,-1.152 10.995,-4.532 14.353,-9.517 3.356,-4.985 4.57,-10.979 3.419,-16.878 -2.06,-10.543 -11.336,-18.188 -22.055,-18.188 -0.026,0 -47.041,0 -47.041,0 v -91.777 c 23.666,-0.929 47.055,-10.392 65.083,-28.42 2.929,-2.929 2.929,-7.678 0,-10.606 -2.93,-2.929 -7.678,-2.929 -10.607,0 -14.668,14.669 -33.889,23.128 -54.476,24.07 V 179.213 C 155.271,175.371 195,133.237 195,81.999 Z M 90,307.499 H 52.5 c -18.11,0 -33.261,-12.904 -36.745,-30 H 90 Z m 0,-107.4 c -17.812,-2.39 -34.273,-10.479 -47.196,-23.403 -2.93,-2.929 -7.678,-2.929 -10.607,0 -2.929,2.929 -2.929,7.678 0,10.606 16.175,16.176 36.668,25.443 57.803,27.853 V 262.5 H 15 V 170 c 0,-6.893 5.607,-12.5 12.5,-12.5 h 50 c 6.893,0 12.5,5.607 12.5,12.5 z"
         id="path6803" />
      <path
         d="m 474.5,237.499 h -61 v -15.286 c 50.271,-3.842 90,-45.976 90,-97.214 0,-4.142 -3.357,-7.5 -7.5,-7.5 -4.143,0 -7.5,3.358 -7.5,7.5 0,43.343 -33.605,78.961 -76.125,82.229 -3.362,-11.39 -13.91,-19.729 -26.375,-19.729 h -50 c -12.563,0 -23.178,8.472 -26.452,20 h -53.555 c -4.136,0 -7.5,-3.364 -7.5,-7.5 0,-4.136 3.364,-7.5 7.5,-7.5 h 21.722 c 4.143,0 7.5,-3.358 7.5,-7.5 0,-4.142 -3.357,-7.5 -7.5,-7.5 h -21.722 c -12.406,0 -22.5,10.093 -22.5,22.5 0,12.407 10.094,22.5 22.5,22.5 H 308.5 v 74.759 c -9.693,11.989 -15,26.936 -15,42.406 v 13.785 c -5.207,1.19 -10.007,3.458 -14.143,6.57 v -16.27 c 0,-18.886 -15.364,-34.25 -34.25,-34.25 -7.132,0 -13.76,2.194 -19.25,5.938 V 275 c 0,-12.407 10.094,-22.5 22.5,-22.5 H 286 c 4.143,0 7.5,-3.358 7.5,-7.5 0,-4.142 -3.357,-7.5 -7.5,-7.5 h -37.643 c -20.678,0 -37.5,16.822 -37.5,37.5 v 207 c 0,4.142 3.357,7.5 7.5,7.5 h 30 c 4.143,0 7.5,-3.358 7.5,-7.5 v -37.5 h 68.071 v 7.445 l -13.35,26.701 c -1.853,3.705 -0.351,8.21 3.354,10.062 1.077,0.539 2.222,0.793 3.349,0.793 2.751,0 5.4,-1.52 6.714,-4.147 l 14.142,-28.284 c 0.521,-1.042 0.792,-2.19 0.792,-3.354 V 444.5 h 45 v 9.216 c 0,1.165 0.271,2.313 0.792,3.354 l 14.143,28.284 c 1.314,2.628 3.963,4.147 6.714,4.147 1.127,0 2.271,-0.255 3.349,-0.793 3.704,-1.853 5.206,-6.357 3.354,-10.062 L 398.93,451.945 V 444.5 H 467 V 482 c 0,4.142 3.357,7.5 7.5,7.5 h 30 c 4.143,0 7.5,-3.358 7.5,-7.5 V 275 c 0,-20.678 -16.822,-37.501 -37.5,-37.501 z m -151,-22.5 c 0,-6.893 5.607,-12.5 12.5,-12.5 h 50 c 6.893,0 12.5,5.607 12.5,12.5 v 77.5 h -75 z m -97.643,128.75 c 0,-10.614 8.636,-19.25 19.25,-19.25 10.614,0 19.25,8.636 19.25,19.25 v 55.75 h -38.5 z m 15,130.75 h -15 v -30 h 15 z m 83.072,-45 h -98.071 v -15 h 75.571 c 4.143,0 7.5,-3.358 7.5,-7.5 0,-4.142 -3.357,-7.5 -7.5,-7.5 h -22.071 v -9.5 c 0,-12.407 10.094,-22.5 22.5,-22.5 h 22.071 z m 60,0 h -45 v -15 h 45 z m 0,-30 h -45 v -32 h 45 z m 7.5,-62 c -4.143,0 -7.5,3.358 -7.5,7.5 v 7.5 h -45 v -7.5 c 0,-4.142 -3.357,-7.5 -7.5,-7.5 -4.143,0 -7.5,3.358 -7.5,7.5 v 7.5 H 308.5 v -12.835 c 0,-11.686 3.905,-22.982 11.038,-32.165 h 82.923 c 7.133,9.184 11.038,20.479 11.038,32.165 v 12.835 h -14.571 v -7.5 c 10e-4,-4.142 -3.357,-7.5 -7.499,-7.5 z m 29.571,30 c 12.406,0 22.5,10.093 22.5,22.5 v 9.5 h -44.571 v -32 z m 76,107 h -15 v -30 h 15 z m 0,-45 h -98.071 v -15 H 497 Z m 0,-30 h -38.5 v -55.75 c 0,-10.614 8.636,-19.25 19.25,-19.25 10.614,0 19.25,8.636 19.25,19.25 z m 0,-84.061 c -5.49,-3.745 -12.118,-5.938 -19.25,-5.938 -18.886,0 -34.25,15.364 -34.25,34.25 v 16.27 c -4.363,-3.282 -9.461,-5.637 -15,-6.766 v -13.59 c 0,-15.471 -5.307,-30.417 -15,-42.406 v -44.759 h 61 c 12.406,0 22.5,10.093 22.5,22.5 z"
         id="path6805" />
      <path
         d="m 308.499,172.499 h 49.942 c 0.848,0.041 1.7,0.065 2.558,0.065 0.858,0 1.71,-0.024 2.558,-0.065 h 49.942 c 16.542,0 30,-13.458 30,-30 0,-7.734 -2.942,-15.082 -8.282,-20.687 L 399.022,83.797 c -0.191,-0.201 -0.392,-0.387 -0.599,-0.562 -3.105,-3.161 -6.602,-5.935 -10.418,-8.234 15.263,-9.193 25.495,-25.923 25.495,-45.003 0,-4.142 -3.357,-7.5 -7.5,-7.5 -19.073,0 -35.805,10.226 -45,25.481 -9.195,-15.255 -25.927,-25.481 -45,-25.481 -4.143,0 -7.5,3.358 -7.5,7.5 0,19.079 10.232,35.809 25.495,45.002 -4.032,2.43 -7.705,5.393 -10.938,8.78 -0.51,0.484 -1.036,1.034 -1.619,1.645 l -34.655,36.384 c -5.342,5.606 -8.283,12.953 -8.283,20.688 -10e-4,16.545 13.457,30.002 29.999,30.002 z m 104.982,-51.762 10.874,11.421 c 2.672,2.804 4.144,6.477 4.144,10.341 0,8.271 -6.729,15 -15,15 h -15.75 c 9.555,-9.383 15.541,-22.383 15.732,-36.762 z M 397.537,38.462 c -3.217,13.896 -14.179,24.857 -28.074,28.074 3.217,-13.895 14.179,-24.857 28.074,-28.074 z m -36.538,44.037 c 8.681,0 16.676,2.976 23.038,7.95 -6.744,4.617 -14.7,7.108 -23.038,7.108 -8.338,0 -16.295,-2.49 -23.038,-7.108 6.362,-4.974 14.357,-7.95 23.038,-7.95 z M 324.463,38.462 c 13.896,3.217 24.857,14.179 28.074,28.074 C 338.642,63.319 327.68,52.357 324.463,38.462 Z m 3.714,63.441 c 9.49,6.913 20.869,10.654 32.822,10.654 11.952,0 23.332,-3.741 32.822,-10.655 2.977,5.378 4.678,11.557 4.678,18.129 0,19.977 -15.677,36.355 -35.364,37.467 h -4.272 c -19.687,-1.113 -35.364,-17.49 -35.364,-37.467 0,-6.571 1.701,-12.75 4.678,-18.128 z m -30.533,30.253 c 3.093,-3.248 6.902,-7.248 10.873,-11.419 0.191,14.378 6.177,27.377 15.732,36.762 h -15.75 c -8.271,0 -15,-6.729 -15,-15 0,-3.865 1.472,-7.537 4.145,-10.343 z"
         id="path6807" />
      <g
         id="g6809" />
      <g
         id="g6811" />
      <g
         id="g6813" />
      <g
         id="g6815" />
      <g
         id="g6817" />
      <g
         id="g6819" />
      <g
         id="g6821" />
      <g
         id="g6823" />
      <g
         id="g6825" />
      <g
         id="g6827" />
      <g
         id="g6829" />
      <g
         id="g6831" />
      <g
         id="g6833" />
      <g
         id="g6835" />
      <g
         id="g6837" />
    </g>
  </g>
</svg>
